<?xml version="1.0" encoding="utf-8"?>
<!-- Generator: Adobe Illustrator 22.0.0, SVG Export Plug-In . SVG Version: 6.00 Build 0)  -->
<svg version="1.1" id="Layer_1" xmlns="http://www.w3.org/2000/svg" xmlns:xlink="http://www.w3.org/1999/xlink" x="0px" y="0px"
	 width="72px" height="80px" viewBox="0 0 72 80" style="enable-background:new 0 0 72 80;" xml:space="preserve">
<g>
	<path d="M0.677,18.538V0h5.131c1.434,0,2.733,0.34,3.896,1.019c1.163,0.679,2.075,1.632,2.737,2.858
		c0.662,1.227,1.001,2.6,1.019,4.119v2.406c0,1.545-0.325,2.937-0.974,4.176c-0.649,1.239-1.556,2.207-2.718,2.903
		c-1.163,0.696-2.462,1.048-3.896,1.057H0.677z M1.365,0.687V17.85h4.443c1.299,0,2.481-0.316,3.546-0.948
		c1.065-0.633,1.899-1.515,2.502-2.648c0.603-1.133,0.908-2.392,0.917-3.775V8.097c0-1.383-0.295-2.64-0.885-3.769
		c-0.59-1.129-1.413-2.014-2.47-2.654C8.361,1.033,7.191,0.705,5.91,0.687H1.365z"/>
	<polygon points="27.72,9.345 18.425,9.345 18.425,17.85 29.018,17.85 29.018,18.538 17.738,18.538 17.738,0 29.018,0 29.018,0.687 
		18.425,0.687 18.425,8.658 27.72,8.658 	"/>
	<path d="M12.74,35.207H6.026l-1.277,3.818H0.677l6.919-18.531h3.549l6.957,18.531h-4.072L12.74,35.207z M7.06,32.114h4.646
		L9.37,25.178L7.06,32.114z"/>
	<path d="M28.987,32.241h-3.051v6.784h-3.83V20.494h6.906c2.196,0,3.889,0.488,5.081,1.464c1.191,0.976,1.787,2.354,1.787,4.136
		c0,1.264-0.274,2.319-0.823,3.163c-0.549,0.844-1.381,1.517-2.496,2.017l4.021,7.573v0.178h-4.11L28.987,32.241z M25.936,29.149
		h3.089c0.961,0,1.706-0.244,2.234-0.732c0.528-0.488,0.791-1.16,0.791-2.017c0-0.874-0.249-1.561-0.747-2.062
		c-0.498-0.5-1.262-0.751-2.291-0.751h-3.076V29.149z"/>
	<polygon points="54.412,23.587 48.719,23.587 48.719,39.025 44.889,39.025 44.889,23.587 39.273,23.587 39.273,20.494 
		54.412,20.494 	"/>
	<polygon points="70.046,30.994 62.694,30.994 62.694,35.958 71.323,35.958 71.323,39.025 58.864,39.025 58.864,20.494 
		71.297,20.494 71.297,23.587 62.694,23.587 62.694,28.003 70.046,28.003 	"/>
	<polygon points="53.104,50.32 43.809,50.32 43.809,58.825 54.402,58.825 54.402,59.513 43.122,59.513 43.122,40.975 54.402,40.975 
		54.402,41.662 43.809,41.662 43.809,49.633 53.104,49.633 	"/>
	<polygon points="71.323,59.513 70.635,59.513 58.667,42.146 58.667,59.513 57.967,59.513 57.967,40.975 58.667,40.975 
		70.635,58.303 70.635,40.975 71.323,40.975 	"/>
	<polygon points="4.497,76.932 12.607,76.932 12.607,80 0.677,80 0.677,61.462 4.497,61.462 	"/>
	<rect x="15.039" y="61.462" width="3.82" height="18.538"/>
	<polygon points="37.472,80 33.653,80 26.217,67.803 26.217,80 22.398,80 22.398,61.462 26.217,61.462 33.665,73.685 33.665,61.462 
		37.472,61.462 	"/>
	<polygon points="51.961,71.966 44.628,71.966 44.628,76.932 53.234,76.932 53.234,80 40.808,80 40.808,61.462 53.209,61.462 
		53.209,64.556 44.628,64.556 44.628,68.974 51.961,68.974 	"/>
	<path d="M65.941,76.18h-6.697L57.971,80h-4.061l6.901-18.538h3.539L71.288,80h-4.061L65.941,76.18z M60.275,73.087h4.634
		l-2.33-6.939L60.275,73.087z"/>
</g>
</svg>
